<svg width="79" height="79" viewBox="0 0 79 79" fill="none" xmlns="http://www.w3.org/2000/svg">
<g clip-path="url(#clip0_3_221)">
<path d="M4.67045 76.7898V77.7273H0.852273V76.7898H4.67045ZM10.19 76.7898V77.7273H6.3718V76.7898H10.19ZM15.7095 76.7898V77.7273H11.8913V76.7898H15.7095ZM21.229 76.7898V77.7273H17.4109V76.7898H21.229ZM26.7486 76.7898V77.7273H22.9304V76.7898H26.7486ZM32.2681 76.7898V77.7273H28.4499V76.7898H32.2681ZM37.7876 76.7898V77.7273H33.9695V76.7898H37.7876ZM43.3072 76.7898V77.7273H39.489V76.7898H43.3072ZM48.8267 76.7898V77.7273H45.0085V76.7898H48.8267ZM54.3462 76.7898V77.7273H50.5281V76.7898H54.3462ZM59.8658 76.7898V77.7273H56.0476V76.7898H59.8658ZM65.3853 76.7898V77.7273H61.5671V76.7898H65.3853ZM70.9048 76.7898V77.7273H67.0866V76.7898H70.9048ZM76.4244 76.7898V77.7273H72.6062V76.7898H76.4244Z" fill="black"/>
<path d="M76.7898 72.3295H77.7273V76.1477H76.7898V72.3295ZM76.7898 66.81H77.7273V70.6282H76.7898V66.81ZM76.7898 61.2905H77.7273V65.1087H76.7898V61.2905ZM76.7898 55.771H77.7273L77.7273 59.5891H76.7898L76.7898 55.771ZM76.7898 50.2514H77.7273V54.0696H76.7898V50.2514ZM76.7898 44.7319H77.7273V48.5501H76.7898V44.7319ZM76.7898 39.2124H77.7273V43.0305H76.7898V39.2124ZM76.7898 33.6928H77.7273V37.511H76.7898V33.6928ZM76.7898 28.1733H77.7273V31.9915H76.7898V28.1733ZM76.7898 22.6538H77.7273L77.7273 26.4719H76.7898V22.6538ZM76.7898 17.1342H77.7273V20.9524H76.7898V17.1342ZM76.7898 11.6147H77.7273V15.4329H76.7898V11.6147ZM76.7898 6.09517H77.7273V9.91335H76.7898V6.09517ZM76.7898 0.575639H77.7273V4.39382H76.7898V0.575639Z" fill="black"/>
</g>
<defs>
<clipPath id="clip0_3_221">
<rect width="79" height="79" fill="white"/>
</clipPath>
</defs>
</svg>
